<svg width="42" height="42" viewBox="0 0 42 42" fill="none" xmlns="http://www.w3.org/2000/svg">
<circle cx="21" cy="21" r="21" fill="#C2D7FE"/>
<path d="M26.286 13.1517L25.359 14.0787L16.838 22.5987C16.261 23.1767 15.972 23.4657 15.724 23.7837C15.4311 24.159 15.18 24.5651 14.975 24.9947C14.802 25.3587 14.673 25.7467 14.415 26.5207L13.321 29.8017L13.053 30.6037C12.9904 30.7907 12.9811 30.9914 13.0262 31.1833C13.0713 31.3753 13.1691 31.5508 13.3085 31.6903C13.4479 31.8297 13.6235 31.9274 13.8154 31.9726C14.0074 32.0177 14.2081 32.0084 14.395 31.9457L15.197 31.6777L18.478 30.5837C19.253 30.3257 19.64 30.1967 20.004 30.0237C20.434 29.8187 20.84 29.5677 21.215 29.2747C21.533 29.0267 21.822 28.7377 22.399 28.1607L30.92 19.6397L31.847 18.7127C32.5845 17.9753 32.9988 16.9751 32.9988 15.9322C32.9988 14.8893 32.5845 13.8892 31.847 13.1517C31.1096 12.4143 30.1094 12 29.0665 12C28.0237 12 27.0235 12.4143 26.286 13.1517Z" stroke="#203864" stroke-width="1.5"/>
<path opacity="0.5" d="M25.3583 14.0781C25.3583 14.0781 25.4743 16.0481 27.2123 17.7861C28.9503 19.5241 30.9193 19.6391 30.9193 19.6391M15.1963 31.6781L13.3203 29.8001" stroke="#203864" stroke-width="1.5"/>
</svg>
