<svg width="24" height="24" viewBox="0 0 24 24" fill="none" xmlns="http://www.w3.org/2000/svg">
<path d="M7.05887 3.83956C7.05874 3.69298 7.00838 3.55088 6.91617 3.43694C6.82396 3.32299 6.69547 3.24411 6.55214 3.21342C6.40881 3.18274 6.2593 3.20211 6.12852 3.26831C5.99775 3.33451 5.89361 3.44354 5.83349 3.57722L5.83178 3.57979C5.75572 3.73289 5.66861 3.88026 5.57115 4.02072C5.38572 4.28818 5.12338 4.58726 4.79696 4.79149C4.72318 4.83487 4.65883 4.8926 4.60772 4.96125C4.55661 5.02991 4.51977 5.10811 4.49937 5.19123C4.47897 5.27436 4.47543 5.36073 4.48896 5.44525C4.50249 5.52976 4.53281 5.61071 4.57813 5.68332C4.62345 5.75593 4.68286 5.81872 4.75285 5.868C4.82283 5.91727 4.90198 5.95203 4.98562 5.97021C5.06926 5.9884 5.15569 5.98965 5.23982 5.97389C5.32395 5.95812 5.40406 5.92567 5.47545 5.87844C5.58226 5.81179 5.68309 5.74086 5.77709 5.66652V7.68489C5.77709 7.85486 5.84461 8.01788 5.9648 8.13807C6.08499 8.25826 6.248 8.32578 6.41798 8.32578C6.58795 8.32578 6.75097 8.25826 6.87116 8.13807C6.99135 8.01788 7.05887 7.85486 7.05887 7.68489V3.83956ZM19.4494 17.5118C19.4494 17.3419 19.3819 17.1789 19.2617 17.0587C19.1415 16.9385 18.9785 16.871 18.8085 16.871H11.1178C10.9479 16.871 10.7848 16.9385 10.6646 17.0587C10.5445 17.1789 10.4769 17.3419 10.4769 17.5118C10.4769 17.6818 10.5445 17.8448 10.6646 17.965C10.7848 18.0852 10.9479 18.1527 11.1178 18.1527H18.8085C18.9785 18.1527 19.1415 18.0852 19.2617 17.965C19.3819 17.8448 19.4494 17.6818 19.4494 17.5118ZM19.4494 11.9524C19.4494 11.7824 19.3819 11.6194 19.2617 11.4992C19.1415 11.379 18.9785 11.3115 18.8085 11.3115H11.1178C10.9479 11.3115 10.7848 11.379 10.6646 11.4992C10.5445 11.6194 10.4769 11.7824 10.4769 11.9524C10.4769 12.1223 10.5445 12.2853 10.6646 12.4055C10.7848 12.5257 10.9479 12.5932 11.1178 12.5932H18.8085C18.9785 12.5932 19.1415 12.5257 19.2617 12.4055C19.3819 12.2853 19.4494 12.1223 19.4494 11.9524ZM19.4494 6.40311C19.4494 6.23314 19.3819 6.07013 19.2617 5.94994C19.1415 5.82975 18.9785 5.76222 18.8085 5.76222H11.1178C10.9479 5.76222 10.7848 5.82975 10.6646 5.94994C10.5445 6.07013 10.4769 6.23314 10.4769 6.40311C10.4769 6.57309 10.5445 6.7361 10.6646 6.85629C10.7848 6.97648 10.9479 7.044 11.1178 7.044H18.8085C18.9785 7.044 19.1415 6.97648 19.2617 6.85629C19.3819 6.7361 19.4494 6.57309 19.4494 6.40311ZM6.33253 10.4792C6.07617 10.4339 5.75487 10.5356 5.5891 10.7013C5.46761 10.8145 5.30692 10.8762 5.14088 10.8732C4.97485 10.8703 4.81643 10.8031 4.69901 10.6856C4.58159 10.5682 4.51433 10.4098 4.5114 10.2438C4.50847 10.0777 4.5701 9.91704 4.68331 9.79555C5.15842 9.32044 5.90527 9.10168 6.55641 9.21704C6.89565 9.27686 7.2443 9.43409 7.5092 9.73402C7.77923 10.0399 7.91338 10.439 7.91338 10.8893C7.91338 11.4191 7.68181 11.8122 7.39555 12.1027C7.15799 12.3446 6.8572 12.5394 6.62135 12.6915L6.55299 12.7351C6.41122 12.825 6.27404 12.922 6.14197 13.0256H7.2725C7.44247 13.0256 7.60548 13.0931 7.72567 13.2133C7.84586 13.3335 7.91338 13.4965 7.91338 13.6665C7.91338 13.8365 7.84586 13.9995 7.72567 14.1197C7.60548 14.2399 7.44247 14.3074 7.2725 14.3074H5.1362C4.96623 14.3074 4.80322 14.2399 4.68303 14.1197C4.56284 13.9995 4.49531 13.8365 4.49531 13.6665C4.49531 12.5445 5.33616 11.9976 5.84118 11.6695L5.89245 11.6353C6.16419 11.4601 6.34791 11.3405 6.48207 11.2046C6.59657 11.0884 6.63161 11.0013 6.63161 10.8893C6.63161 10.6988 6.57948 10.6176 6.54787 10.5817C6.4901 10.5241 6.41445 10.488 6.33338 10.4792H6.33253ZM4.46968 19.6738C4.46968 19.6738 4.54915 19.7456 4.4731 19.678L4.47822 19.6823L4.48933 19.6934C4.52954 19.732 4.57237 19.7676 4.61751 19.8002C4.69869 19.8609 4.81149 19.9353 4.95675 20.0079C5.24814 20.1532 5.666 20.2899 6.20435 20.2899C6.75124 20.2899 7.22635 20.1344 7.57243 19.8284C7.92108 19.5208 8.09369 19.0953 8.08087 18.6663C8.07023 18.3206 7.9418 17.989 7.71685 17.7263C7.93817 17.4648 8.06891 17.1401 8.08087 16.7846C8.08767 16.5653 8.04558 16.3473 7.95764 16.1463C7.86969 15.9453 7.73811 15.7663 7.57243 15.6225C7.22635 15.3174 6.75124 15.1619 6.20435 15.1619C5.666 15.1619 5.24814 15.2969 4.95675 15.4439C4.80076 15.5216 4.65449 15.6174 4.52095 15.7293C4.51025 15.7385 4.49971 15.7479 4.48933 15.7575L4.47822 15.7686L4.4731 15.7729L4.47139 15.7755H4.46968L4.46882 15.7772C4.35388 15.8973 4.29013 16.0574 4.29102 16.2237C4.29192 16.3899 4.3574 16.5493 4.47363 16.6682C4.58986 16.7871 4.74774 16.8562 4.91394 16.8609C5.08014 16.8655 5.24165 16.8054 5.36436 16.6932C5.41534 16.6532 5.47032 16.6185 5.52843 16.5898C5.66429 16.5215 5.88732 16.4446 6.2035 16.4446C6.51112 16.4446 6.66152 16.5291 6.72304 16.5838C6.74717 16.6028 6.76654 16.6271 6.7796 16.6548C6.79266 16.6826 6.79904 16.713 6.79824 16.7436C6.79524 16.7819 6.78436 16.8191 6.76627 16.8529C6.74818 16.8867 6.72328 16.9164 6.69313 16.9402C6.61708 17.0068 6.4684 17.0854 6.2035 17.0854C6.03352 17.0854 5.87051 17.153 5.75032 17.2732C5.63013 17.3933 5.56261 17.5564 5.56261 17.7263C5.56261 17.8963 5.63013 18.0593 5.75032 18.1795C5.87051 18.2997 6.03352 18.3672 6.2035 18.3672C6.4684 18.3672 6.61708 18.4441 6.69313 18.5099C6.7709 18.5783 6.79653 18.6518 6.79824 18.7073C6.79904 18.7381 6.79266 18.7686 6.77961 18.7965C6.76656 18.8244 6.74719 18.8489 6.72304 18.868C6.66152 18.9218 6.51198 19.0072 6.2035 19.0072C5.97022 19.0122 5.73903 18.9624 5.52843 18.862C5.47028 18.833 5.4153 18.7981 5.36436 18.7577C5.24165 18.6455 5.08014 18.5854 4.91394 18.5901C4.74774 18.5947 4.58986 18.6638 4.47363 18.7827C4.3574 18.9016 4.29192 19.061 4.29102 19.2273C4.29013 19.3935 4.35388 19.5536 4.46882 19.6738H4.46968ZM4.47139 15.7755H4.46968C4.47566 15.7712 4.64058 15.6336 4.46968 15.7755H4.47139Z" fill="#A0A3BD"/>
</svg>
