<svg width="24" height="24" viewBox="0 0 24 24" fill="none" xmlns="http://www.w3.org/2000/svg">
<path d="M4.38 7.76001C4.746 7.76001 5.09701 7.61462 5.35582 7.35582C5.61462 7.09701 5.76001 6.746 5.76001 6.38C5.76001 6.014 5.61462 5.663 5.35582 5.40419C5.09701 5.14539 4.746 5 4.38 5C4.014 5 3.663 5.14539 3.40419 5.40419C3.14539 5.663 3 6.014 3 6.38C3 6.746 3.14539 7.09701 3.40419 7.35582C3.663 7.61462 4.014 7.76001 4.38 7.76001ZM8.52002 6.38C8.52002 6.1604 8.60725 5.9498 8.76254 5.79452C8.91782 5.63924 9.12842 5.552 9.34802 5.552H19.8361C20.0557 5.552 20.2663 5.63924 20.4215 5.79452C20.5768 5.9498 20.6641 6.1604 20.6641 6.38C20.6641 6.5996 20.5768 6.81021 20.4215 6.96549C20.2663 7.12077 20.0557 7.20801 19.8361 7.20801H9.34802C9.12842 7.20801 8.91782 7.12077 8.76254 6.96549C8.60725 6.81021 8.52002 6.5996 8.52002 6.38ZM9.34802 11.072C9.12842 11.072 8.91782 11.1593 8.76254 11.3145C8.60725 11.4698 8.52002 11.6804 8.52002 11.9C8.52002 12.1196 8.60725 12.3302 8.76254 12.4855C8.91782 12.6408 9.12842 12.728 9.34802 12.728H19.8361C20.0557 12.728 20.2663 12.6408 20.4215 12.4855C20.5768 12.3302 20.6641 12.1196 20.6641 11.9C20.6641 11.6804 20.5768 11.4698 20.4215 11.3145C20.2663 11.1593 20.0557 11.072 19.8361 11.072H9.34802ZM9.34802 16.592C9.12842 16.592 8.91782 16.6793 8.76254 16.8346C8.60725 16.9898 8.52002 17.2004 8.52002 17.42C8.52002 17.6396 8.60725 17.8503 8.76254 18.0055C8.91782 18.1608 9.12842 18.248 9.34802 18.248H19.8361C20.0557 18.248 20.2663 18.1608 20.4215 18.0055C20.5768 17.8503 20.6641 17.6396 20.6641 17.42C20.6641 17.2004 20.5768 16.9898 20.4215 16.8346C20.2663 16.6793 20.0557 16.592 19.8361 16.592H9.34802ZM5.76001 11.9C5.76001 12.266 5.61462 12.617 5.35582 12.8758C5.09701 13.1346 4.746 13.28 4.38 13.28C4.014 13.28 3.663 13.1346 3.40419 12.8758C3.14539 12.617 3 12.266 3 11.9C3 11.534 3.14539 11.183 3.40419 10.9242C3.663 10.6654 4.014 10.52 4.38 10.52C4.746 10.52 5.09701 10.6654 5.35582 10.9242C5.61462 11.183 5.76001 11.534 5.76001 11.9ZM4.38 18.8C4.746 18.8 5.09701 18.6547 5.35582 18.3959C5.61462 18.1371 5.76001 17.786 5.76001 17.42C5.76001 17.054 5.61462 16.703 5.35582 16.4442C5.09701 16.1854 4.746 16.04 4.38 16.04C4.014 16.04 3.663 16.1854 3.40419 16.4442C3.14539 16.703 3 17.054 3 17.42C3 17.786 3.14539 18.1371 3.40419 18.3959C3.663 18.6547 4.014 18.8 4.38 18.8Z" fill="#A0A3BD"/>
</svg>
