<svg width="24" height="24" viewBox="0 0 24 24" fill="none" xmlns="http://www.w3.org/2000/svg">
<path d="M15.0554 11.7862C16.3387 11.5214 17.3978 10.3606 17.3978 8.66975C17.3978 6.85703 16.0737 5.20703 13.487 5.20703H6.96285C6.7971 5.20703 6.63814 5.27288 6.52094 5.39008C6.40373 5.50728 6.33789 5.66624 6.33789 5.83199V18.1678C6.33789 18.3335 6.40373 18.4925 6.52094 18.6097C6.63814 18.7269 6.7971 18.7927 6.96285 18.7927H13.7112C16.3183 18.7927 17.6625 17.1631 17.6625 15.1061C17.6628 13.4158 16.5221 12.0101 15.0554 11.7862ZM9.23013 7.75319H12.8558C13.8336 7.75319 14.4446 8.34383 14.4446 9.17879C14.4446 10.0546 13.8336 10.6046 12.8558 10.6046H9.23013V7.75319ZM12.9777 16.2468H9.23013V13.1508H12.978C14.0983 13.1508 14.7093 13.8434 14.7093 14.6988C14.7093 15.6766 14.0575 16.2468 12.9777 16.2468Z" fill="#A0A3BD"/>
</svg>
