<svg width="24" height="24" viewBox="0 0 24 24" fill="none" xmlns="http://www.w3.org/2000/svg">
<path d="M12.128 3.31C12.6906 2.74759 13.4536 2.43164 14.249 2.43164C15.0445 2.43164 15.8075 2.74759 16.37 3.31L22.1885 9.1285C22.751 9.69108 23.0669 10.454 23.0669 11.2495C23.0669 12.045 22.751 12.8079 22.1885 13.3705L13.9385 21.6205C13.3761 22.1831 12.6131 22.4993 11.8175 22.4995H7.67905C6.88346 22.4993 6.12053 22.1831 5.55805 21.6205L1.80805 17.8705C1.24563 17.3079 0.929688 16.545 0.929688 15.7495C0.929688 14.954 1.24563 14.1911 1.80805 13.6285L12.1265 3.31H12.128ZM15.3095 4.3705C15.0283 4.08929 14.6468 3.93132 14.249 3.93132C13.8513 3.93132 13.4698 4.08929 13.1885 4.3705L6.23905 11.32L14.1785 19.2595L21.128 12.31C21.4093 12.0287 21.5672 11.6472 21.5672 11.2495C21.5672 10.8518 21.4093 10.4703 21.128 10.189L15.3095 4.3705ZM13.118 20.32L5.17855 12.3805L2.87005 14.689C2.58884 14.9703 2.43087 15.3518 2.43087 15.7495C2.43087 16.1472 2.58884 16.5287 2.87005 16.81L6.62005 20.56C6.90129 20.8413 7.28275 20.9994 7.68055 20.9995H11.819C12.2168 20.9994 12.5983 20.8413 12.8795 20.56L13.118 20.32Z" fill="#A0A3BD"/>
</svg>
