<svg width="24" height="24" viewBox="0 0 24 24" fill="none" xmlns="http://www.w3.org/2000/svg">
<path d="M6.7978 5.53999L7.8267 4.51108C7.85149 4.48617 7.86878 4.45481 7.87663 4.42056C7.88447 4.38631 7.88254 4.35055 7.87107 4.31734C7.85959 4.28413 7.83902 4.25481 7.81171 4.23271C7.78439 4.21061 7.75142 4.19662 7.71655 4.19233L3.96186 3.74936C3.84233 3.7353 3.7392 3.83608 3.75327 3.95795L4.19624 7.71264C4.21499 7.86733 4.40483 7.93295 4.51499 7.8228L5.5392 6.79858L8.6728 9.92983C8.74545 10.0025 8.86499 10.0025 8.93764 9.92983L9.93139 8.93842C10.004 8.86577 10.004 8.74624 9.93139 8.67358L6.7978 5.53999ZM15.0642 9.92983C15.1369 10.0025 15.2564 10.0025 15.329 9.92983L18.4626 6.79858L19.4869 7.8228C19.5118 7.84758 19.5431 7.86488 19.5774 7.87272C19.6116 7.88056 19.6474 7.87864 19.6806 7.86716C19.7138 7.85568 19.7431 7.83512 19.7652 7.8078C19.7873 7.78049 19.8013 7.74752 19.8056 7.71264L20.2486 3.9603C20.2626 3.84077 20.1619 3.73764 20.04 3.7517L16.2853 4.19467C16.1306 4.21342 16.065 4.40327 16.1751 4.51342L17.204 5.54233L14.0705 8.67124C14.0356 8.70648 14.016 8.75406 14.016 8.80366C14.016 8.85325 14.0356 8.90084 14.0705 8.93608L15.0642 9.92983ZM19.8056 16.2861C19.7869 16.1314 19.597 16.0658 19.4869 16.1759L18.4626 17.2001L15.329 14.0689C15.2938 14.034 15.2462 14.0144 15.1966 14.0144C15.147 14.0144 15.0994 14.034 15.0642 14.0689L14.0705 15.0603C14.0356 15.0955 14.016 15.1431 14.016 15.1927C14.016 15.2423 14.0356 15.2899 14.0705 15.3251L17.204 18.4587L16.1751 19.4876C16.1504 19.5125 16.1331 19.5439 16.1252 19.5782C16.1174 19.6124 16.1193 19.6482 16.1308 19.6814C16.1423 19.7146 16.1628 19.7439 16.1901 19.766C16.2175 19.7881 16.2504 19.8021 16.2853 19.8064L20.04 20.2494C20.1595 20.2634 20.2626 20.1626 20.2486 20.0408L19.8056 16.2861ZM8.93764 14.0689C8.9024 14.034 8.85481 14.0144 8.80522 14.0144C8.75563 14.0144 8.70804 14.034 8.6728 14.0689L5.5392 17.2001L4.51499 16.1759C4.49008 16.1511 4.45872 16.1338 4.42447 16.126C4.39022 16.1182 4.35445 16.1201 4.32125 16.1316C4.28804 16.143 4.25871 16.1636 4.23661 16.1909C4.21452 16.2182 4.20053 16.2512 4.19624 16.2861L3.75327 20.0384C3.7392 20.158 3.83999 20.2611 3.96186 20.247L7.71655 19.804C7.87124 19.7853 7.93686 19.5955 7.8267 19.4853L6.7978 18.4587L9.93139 15.3275C10.004 15.2548 10.004 15.1353 9.93139 15.0626L8.93764 14.0689Z" fill="#A0A3BD"/>
</svg>
