<svg width="42" height="42" viewBox="0 0 42 42" fill="none" xmlns="http://www.w3.org/2000/svg">
<circle cx="21" cy="21" r="20.5" stroke="#314C80"/>
<path d="M18.5695 27.8191C18.3795 27.8191 18.1895 27.7491 18.0395 27.5991L11.9695 21.5291C11.6795 21.2391 11.6795 20.7591 11.9695 20.4691L18.0395 14.3991C18.3295 14.1091 18.8095 14.1091 19.0995 14.3991C19.3895 14.6891 19.3895 15.1691 19.0995 15.4591L13.5595 20.9991L19.0995 26.5391C19.3895 26.8291 19.3895 27.3091 19.0995 27.5991C18.9595 27.7491 18.7595 27.8191 18.5695 27.8191Z" fill="#292D32"/>
<path d="M29.4999 21.75H12.6699C12.2599 21.75 11.9199 21.41 11.9199 21C11.9199 20.59 12.2599 20.25 12.6699 20.25H29.4999C29.9099 20.25 30.2499 20.59 30.2499 21C30.2499 21.41 29.9099 21.75 29.4999 21.75Z" fill="#292D32"/>
</svg>
