<svg width="30" height="30" viewBox="0 0 30 30" fill="none" xmlns="http://www.w3.org/2000/svg">
<g filter="url(#filter0_b_614_6453)">
<rect width="30" height="30" rx="10" fill="white" fill-opacity="0.4"/>
<path d="M17.1875 15C17.1875 15.4326 17.0592 15.8556 16.8188 16.2153C16.5785 16.575 16.2368 16.8554 15.8371 17.021C15.4374 17.1866 14.9976 17.2299 14.5732 17.1455C14.1489 17.0611 13.7591 16.8527 13.4532 16.5468C13.1473 16.2409 12.9389 15.8511 12.8545 15.4268C12.7701 15.0024 12.8134 14.5626 12.979 14.1629C13.1446 13.7632 13.425 13.4215 13.7847 13.1812C14.1444 12.9408 14.5674 12.8125 15 12.8125C15.5802 12.8125 16.1366 13.043 16.5468 13.4532C16.957 13.8634 17.1875 14.4198 17.1875 15ZM15 10.9375C15.4326 10.9375 15.8556 10.8092 16.2153 10.5688C16.575 10.3285 16.8554 9.98683 17.021 9.58712C17.1866 9.18741 17.2299 8.74757 17.1455 8.32324C17.0611 7.89891 16.8527 7.50913 16.5468 7.2032C16.2409 6.89728 15.8511 6.68894 15.4268 6.60453C15.0024 6.52013 14.5626 6.56345 14.1629 6.72901C13.7632 6.89458 13.4215 7.17496 13.1812 7.53469C12.9408 7.89442 12.8125 8.31735 12.8125 8.75C12.8125 9.33016 13.043 9.88656 13.4532 10.2968C13.8634 10.707 14.4198 10.9375 15 10.9375ZM15 19.0625C14.5674 19.0625 14.1444 19.1908 13.7847 19.4312C13.425 19.6715 13.1446 20.0132 12.979 20.4129C12.8134 20.8126 12.7701 21.2524 12.8545 21.6768C12.9389 22.1011 13.1473 22.4909 13.4532 22.7968C13.7591 23.1027 14.1489 23.3111 14.5732 23.3955C14.9976 23.4799 15.4374 23.4366 15.8371 23.271C16.2368 23.1054 16.5785 22.825 16.8188 22.4653C17.0592 22.1056 17.1875 21.6826 17.1875 21.25C17.1875 20.6698 16.957 20.1134 16.5468 19.7032C16.1366 19.293 15.5802 19.0625 15 19.0625Z" fill="#F8FAFF"/>
</g>
<defs>
<filter id="filter0_b_614_6453" x="-34" y="-34" width="98" height="98" filterUnits="userSpaceOnUse" color-interpolation-filters="sRGB">
<feFlood flood-opacity="0" result="BackgroundImageFix"/>
<feGaussianBlur in="BackgroundImageFix" stdDeviation="17"/>
<feComposite in2="SourceAlpha" operator="in" result="effect1_backgroundBlur_614_6453"/>
<feBlend mode="normal" in="SourceGraphic" in2="effect1_backgroundBlur_614_6453" result="shape"/>
</filter>
</defs>
</svg>
